<svg width="41" height="26" viewBox="0 0 41 26" fill="none" xmlns="http://www.w3.org/2000/svg">
<g clip-path="url(#clip0_3_66)">
<path d="M16.5475 11.6238C16.5475 11.6238 20.4268 11.3354 20.4268 6.77954C20.4268 2.2234 17.253 -8.01086e-05 13.2328 -8.01086e-05H0.00384521V25.4603H13.2328C13.2328 25.4603 21.3086 25.7158 21.3086 17.9455C21.3086 17.9456 21.6607 11.6238 16.5475 11.6238ZM12.2806 4.52521H13.2328C13.2328 4.52521 15.031 4.52521 15.031 7.17425C15.031 9.82297 13.9735 10.207 12.7739 10.207H5.83269V4.52521H12.2806ZM12.859 20.9351H5.83269V14.1312H13.2328C13.2328 14.1312 15.9129 14.096 15.9129 17.6277C15.9129 20.6058 13.9111 20.9127 12.859 20.9351ZM32.0791 6.47779C22.3025 6.47779 22.3111 16.2604 22.3111 16.2604C22.3111 16.2604 21.6403 25.9928 32.0791 25.9928C32.0791 25.9928 40.7779 26.4906 40.7779 19.2225H36.3042C36.3042 19.2225 36.4535 21.9596 32.2283 21.9596C32.2283 21.9596 27.7539 22.2599 27.7539 17.53H40.9272C40.9272 17.5299 42.3685 6.47779 32.0791 6.47779ZM27.7047 14.1312C27.7047 14.1312 28.251 10.2069 32.1785 10.2069C36.1051 10.2069 36.056 14.1312 36.056 14.1312H27.7047ZM37.0981 4.63512H26.6094V1.49986H37.0981V4.63512Z" fill="white"/>
</g>
<defs>
<clipPath id="clip0_3_66">
<rect width="41" height="26" fill="white"/>
</clipPath>
</defs>
</svg>
