<svg width="41" height="39" viewBox="0 0 41 39" fill="none" xmlns="http://www.w3.org/2000/svg">
<path fill-rule="evenodd" clip-rule="evenodd" d="M20.5 0C9.17726 0 0 8.95001 0 19.9924C0 28.8219 5.87479 36.3149 14.0186 38.9659C15.0408 39.1522 15.4227 38.5277 15.4227 38.0019C15.4227 37.5199 15.4003 35.9534 15.4003 34.2773C9.69397 35.4823 8.49206 31.9221 8.49206 31.9221C7.55973 29.6106 6.21178 28.9971 6.21178 28.9971C4.34712 27.7593 6.34658 27.7812 6.34658 27.7812C8.40219 27.9236 9.49178 29.8407 9.49178 29.8407C11.3227 32.897 14.2882 32.0097 15.4564 31.5058C15.6362 30.2131 16.1753 29.3367 16.7595 28.8328C12.2101 28.3289 7.4137 26.609 7.4137 18.9517C7.4137 16.7717 8.21123 14.9861 9.52548 13.5839C9.31206 13.0799 8.61562 11.0424 9.72767 8.29272C9.72767 8.29272 11.4463 7.75594 15.3666 10.3413C17.0066 9.90307 18.7589 9.67302 20.5 9.67302C22.2411 9.68397 23.9934 9.90307 25.6334 10.3413C29.5425 7.75594 31.2611 8.29272 31.2611 8.29272C32.3731 11.0424 31.6767 13.0799 31.4633 13.5839C32.7775 14.9861 33.5751 16.7717 33.5751 18.9517C33.5751 26.6309 28.7786 28.3179 24.2181 28.8109C24.9482 29.4353 25.611 30.6513 25.611 32.5136C25.611 35.1866 25.5885 37.3446 25.5885 38.0019C25.5885 38.5387 25.9592 39.1522 26.9926 38.9659C35.1364 36.3149 41 28.8328 41 19.9924C41 8.95001 31.8227 0 20.5 0Z" fill="white"/>
<path d="M8.47959 28.404C8.43719 28.4994 8.28879 28.5312 8.15099 28.4676C8.01319 28.404 7.92839 28.2768 7.98139 28.1814C8.02379 28.086 8.17219 28.0542 8.30999 28.1178C8.44779 28.1814 8.53259 28.3086 8.47959 28.404Z" fill="white"/>
<path d="M9.26399 29.2838C9.16859 29.3686 8.98839 29.3262 8.87179 29.199C8.74459 29.0612 8.72339 28.881 8.81879 28.7962C8.91419 28.7114 9.08379 28.7538 9.21099 28.881C9.33819 29.0188 9.35939 29.199 9.26399 29.2838Z" fill="white"/>
<path d="M10.0272 30.3968C9.91061 30.4816 9.71981 30.4074 9.59261 30.2272C9.47601 30.0576 9.47601 29.8456 9.59261 29.7608C9.70921 29.676 9.90001 29.7502 10.0272 29.9198C10.1544 30.1 10.1544 30.312 10.0272 30.3968Z" fill="white"/>
<path d="M11.0766 31.4674C10.9706 31.584 10.748 31.5522 10.5784 31.3932C10.4088 31.2342 10.3664 31.0116 10.4724 30.895C10.5784 30.7784 10.8116 30.8102 10.9706 30.9692C11.1402 31.1388 11.1826 31.3614 11.0766 31.4674Z" fill="white"/>
<path d="M12.5182 32.0928C12.4758 32.2412 12.2532 32.3154 12.0306 32.2518C11.808 32.1882 11.6702 32.008 11.7126 31.8596C11.755 31.7112 11.9776 31.637 12.2002 31.7006C12.4122 31.7642 12.5606 31.9444 12.5182 32.0928Z" fill="white"/>
<path d="M14.0976 32.2094C14.1082 32.3684 13.9174 32.5062 13.6842 32.5062C13.451 32.5168 13.2708 32.379 13.2602 32.22C13.2602 32.061 13.4404 31.9232 13.6736 31.9232C13.9068 31.9232 14.0976 32.0504 14.0976 32.2094Z" fill="white"/>
<path d="M15.571 31.9656C15.6028 32.1246 15.4438 32.2836 15.2106 32.326C14.988 32.3684 14.776 32.273 14.7548 32.114C14.723 31.955 14.8926 31.796 15.1152 31.7536C15.3378 31.7112 15.5392 31.8066 15.571 31.9656Z" fill="white"/>
</svg>
