<svg width="41" height="41" viewBox="0 0 41 41" fill="none" xmlns="http://www.w3.org/2000/svg">
<path d="M19.5059 0.023726C8.67781 0.539296 0.132957 9.55697 0.165805 20.3973C0.175806 23.699 0.972891 26.8153 2.37899 29.5689L0.220127 40.0483C0.103344 40.6151 0.6146 41.1115 1.17773 40.9781L11.4463 38.5453C14.0844 39.8594 17.0476 40.6185 20.1837 40.6663C31.251 40.8354 40.4792 32.0476 40.8242 20.9844C41.1939 9.12543 31.4063 -0.543029 19.5059 0.023726ZM31.7585 31.5928C28.7512 34.6001 24.7529 36.2562 20.5 36.2562C18.0099 36.2562 15.6258 35.6975 13.4137 34.5957L11.9837 33.8833L5.68804 35.3749L7.01324 28.9418L6.30872 27.5622C5.1604 25.3133 4.57816 22.8815 4.57816 20.3343C4.57816 16.0814 6.2343 12.0831 9.24153 9.07582C12.2219 6.09545 16.2855 4.41235 20.5003 4.41235C24.7532 4.41245 28.7513 6.06859 31.7586 9.07572C34.7658 12.083 36.4219 16.0812 36.422 20.334C36.4219 24.549 34.7388 28.6126 31.7585 31.5928Z" fill="white"/>
<path d="M30.3686 24.7441L26.4299 23.6132C25.9121 23.4645 25.3544 23.6114 24.9771 23.9959L24.0139 24.9772C23.6078 25.391 22.9915 25.524 22.454 25.3065C20.5907 24.5524 16.6713 21.0676 15.6704 19.3245C15.3816 18.8216 15.4293 18.193 15.7839 17.7342L16.6248 16.6463C16.9543 16.2201 17.0238 15.6476 16.8059 15.1549L15.1488 11.407C14.7519 10.5093 13.6048 10.248 12.8553 10.8818C11.756 11.8115 10.4517 13.2244 10.2932 14.7896C10.0136 17.5493 11.1971 21.0281 15.6726 25.2052C20.843 30.0309 24.9835 30.6685 27.6793 30.0154C29.2084 29.6451 30.4303 28.1604 31.2015 26.9447C31.7273 26.1158 31.3121 25.0151 30.3686 24.7441Z" fill="white"/>
</svg>
