<svg width="41" height="28" viewBox="0 0 41 28" fill="none" xmlns="http://www.w3.org/2000/svg">
<path d="M16.5945 27.4558C9.08747 27.3201 6.52344 27.1981 4.94743 26.8793C3.88115 26.6675 2.95456 26.1972 2.27516 25.5152C1.75007 24.999 1.33248 24.2114 1.0085 23.1187C0.730597 22.2083 0.622361 21.4509 0.468051 19.6007C0.231832 15.4251 0.17552 12.0113 0.468051 8.19682C0.709389 6.09036 0.826401 3.58974 2.42947 2.13087C3.18639 1.4481 4.06691 1.00872 5.05566 0.827076C6.60022 0.539178 13.1807 0.311588 19.993 0.311588C26.79 0.311588 33.3851 0.539178 34.9311 0.827076C36.1663 1.05467 37.3247 1.73672 38.0049 2.6162C39.4675 4.87487 39.4931 7.68349 39.6416 9.88041C39.703 10.9272 39.703 16.8711 39.6416 17.9178C39.4105 21.3898 39.2247 22.6183 38.6996 23.8919C38.3749 24.696 38.0977 25.1203 37.618 25.5906C36.8656 26.3142 35.9064 26.7956 34.8682 26.9705C28.3718 27.4501 22.8554 27.5542 16.5945 27.4558ZM26.5428 13.5046C22.9286 11.6085 19.4679 9.85026 15.9305 8.03026V18.9187C19.6529 16.9321 23.5772 15.1121 26.5581 13.4895L26.5428 13.5046Z" fill="white"/>
</svg>
