<svg width="20" height="30" viewBox="0 0 20 30" fill="none" xmlns="http://www.w3.org/2000/svg">
<g opacity="0.8" clip-path="url(#clip0_2_13)">
<path d="M19.3758 8.88501C12.7979 9.57636 13.2813 19.708 17.1904 25.1077L15.3199 25.4966C15.3199 25.4966 7.79575 12.989 16.7279 4.58575C18.6824 4.02456 21.1832 6.40067 19.3758 8.88501Z" fill="white"/>
<path d="M0.623954 9.01469C7.20184 9.7058 6.71851 19.8377 2.80963 25.2374L4.68011 25.6265C4.68011 25.6265 12.2038 13.1189 3.27208 4.7159C1.31764 4.15424 -1.18322 6.53153 0.623954 9.01469Z" fill="white"/>
<path d="M17.3142 14.6146H2.66625V15.9167H17.3142V14.6146Z" fill="white"/>
<path d="M13.1913 1.29051C13.1934 1.28839 13.1959 1.2865 13.198 1.28462C9.95114 -1.5994 6.79788 1.27377 6.79788 1.27377L6.82082 1.29051H6.77402C6.8979 1.57771 7.00594 1.86467 7.10894 2.15187C7.21194 2.43907 7.30782 2.72603 7.39889 3.01323C7.44477 3.15683 7.48836 3.30043 7.53263 3.44403C7.5769 3.58763 7.61865 3.73099 7.6588 3.87459L7.72028 4.08987L7.77923 4.30539C7.81937 4.44875 7.85608 4.59235 7.89393 4.73595C8.19214 5.88451 8.43392 7.03307 8.63464 8.18163C8.83536 9.33019 8.99342 10.4785 9.11637 11.6271C9.13166 11.7706 9.14635 11.9141 9.16042 12.0576L9.17074 12.1654L9.17464 12.2731L9.18267 12.4884L9.19758 12.9192L9.21088 13.3498C9.22786 13.9242 9.24093 14.4984 9.25011 15.0725C9.28544 17.3696 9.25768 19.6665 9.1455 21.9636C9.13144 22.2508 9.11614 22.5379 9.09963 22.825L9.07279 23.2558C9.06407 23.3993 9.05451 23.5428 9.04411 23.6863C9.00481 24.2607 8.95847 24.835 8.9051 25.4091C8.85173 25.9832 8.79056 26.5575 8.72158 27.132C8.6858 27.419 8.6491 27.7062 8.60689 27.9934C8.56697 28.2714 8.52408 28.5496 8.47407 28.8276C8.46856 28.8467 8.46374 28.8661 8.45961 28.8866C8.41718 28.8595 9.84676 31.4096 11.5069 28.8814C11.5075 28.8725 11.5075 28.8636 11.5069 28.8547H11.5133C11.4612 28.5675 11.417 28.2803 11.3757 27.9934C11.3344 27.7064 11.2972 27.419 11.261 27.132C11.1909 26.5576 11.1298 25.9833 11.0775 25.4091C11.0252 24.8348 10.9793 24.2606 10.9398 23.6863C10.9295 23.5428 10.9196 23.3994 10.9112 23.2558L10.8818 22.825C10.865 22.5378 10.8497 22.2507 10.8359 21.9636C10.7237 19.6665 10.696 17.3696 10.7313 15.0725C10.7405 14.4983 10.7536 13.924 10.7705 13.3498L10.7841 12.9192L10.799 12.4884L10.8068 12.2731L10.8107 12.1654L10.8212 12.0576C10.8353 11.9143 10.85 11.7707 10.8653 11.6271C10.9873 10.4785 11.1449 9.32995 11.347 8.18163C11.5491 7.03331 11.7888 5.88451 12.0877 4.73595C12.126 4.59235 12.1625 4.44875 12.2024 4.30539L12.2616 4.08987L12.3228 3.87459C12.3632 3.73099 12.4068 3.58739 12.4492 3.44403C12.4917 3.30067 12.5364 3.15683 12.5828 3.01323C12.6745 2.72603 12.7699 2.43907 12.8727 2.15187C12.9755 1.86467 13.0838 1.57771 13.2079 1.29051H13.1913Z" fill="white"/>
</g>
<defs>
<clipPath id="clip0_2_13">
<rect width="20" height="30" fill="white"/>
</clipPath>
</defs>
</svg>
